<svg width="15" height="15" viewBox="0 0 15 15" fill="none" xmlns="http://www.w3.org/2000/svg">
<path d="M5.00001 6.875C4.87639 6.875 4.75556 6.91166 4.65278 6.98033C4.55 7.04901 4.46989 7.14662 4.42258 7.26082C4.37528 7.37503 4.3629 7.50069 4.38702 7.62193C4.41113 7.74317 4.47066 7.85453 4.55807 7.94194C4.64547 8.02935 4.75684 8.08888 4.87808 8.11299C4.99931 8.13711 5.12498 8.12473 5.23919 8.07743C5.35339 8.03012 5.451 7.95001 5.51968 7.84723C5.58835 7.74445 5.62501 7.62361 5.62501 7.5C5.62501 7.33424 5.55916 7.17527 5.44195 7.05806C5.32474 6.94085 5.16577 6.875 5.00001 6.875ZM7.50001 6.875C7.37639 6.875 7.25556 6.91166 7.15278 6.98033C7.05 7.04901 6.96989 7.14662 6.92258 7.26082C6.87528 7.37503 6.8629 7.50069 6.88702 7.62193C6.91113 7.74317 6.97066 7.85453 7.05807 7.94194C7.14547 8.02935 7.25684 8.08888 7.37808 8.11299C7.49931 8.13711 7.62498 8.12473 7.73919 8.07743C7.85339 8.03012 7.951 7.95001 8.01968 7.84723C8.08835 7.74445 8.12501 7.62361 8.12501 7.5C8.12501 7.33424 8.05916 7.17527 7.94195 7.05806C7.82474 6.94085 7.66577 6.875 7.50001 6.875ZM10 6.875C9.8764 6.875 9.75556 6.91166 9.65278 6.98033C9.55 7.04901 9.46989 7.14662 9.42258 7.26082C9.37528 7.37503 9.3629 7.50069 9.38702 7.62193C9.41113 7.74317 9.47066 7.85453 9.55807 7.94194C9.64547 8.02935 9.75684 8.08888 9.87808 8.11299C9.99932 8.13711 10.125 8.12473 10.2392 8.07743C10.3534 8.03012 10.451 7.95001 10.5197 7.84723C10.5884 7.74445 10.625 7.62361 10.625 7.5C10.625 7.33424 10.5592 7.17527 10.4419 7.05806C10.3247 6.94085 10.1658 6.875 10 6.875ZM7.50001 1.25C6.67925 1.25 5.86652 1.41166 5.10824 1.72575C4.34995 2.03984 3.66096 2.50022 3.08059 3.08058C1.90849 4.25269 1.25001 5.8424 1.25001 7.5C1.24454 8.94321 1.74425 10.3428 2.66251 11.4563L1.41251 12.7063C1.32578 12.7941 1.26704 12.9057 1.24368 13.027C1.22032 13.1482 1.2334 13.2737 1.28126 13.3875C1.33317 13.5 1.41732 13.5945 1.52304 13.659C1.62875 13.7235 1.75126 13.7552 1.87501 13.75H7.50001C9.15761 13.75 10.7473 13.0915 11.9194 11.9194C13.0915 10.7473 13.75 9.1576 13.75 7.5C13.75 5.8424 13.0915 4.25269 11.9194 3.08058C10.7473 1.90848 9.15761 1.25 7.50001 1.25ZM7.50001 12.5H3.38126L3.96251 11.9187C4.02156 11.8609 4.06854 11.7918 4.10073 11.7157C4.13292 11.6395 4.14966 11.5577 4.15001 11.475C4.14766 11.3101 4.08027 11.1529 3.96251 11.0375C3.14412 10.22 2.63449 9.14409 2.52044 7.993C2.40639 6.84191 2.69497 5.68688 3.33702 4.7247C3.97908 3.76252 4.93488 3.05272 6.04158 2.71623C7.14828 2.37974 8.33742 2.43738 9.40639 2.87932C10.4754 3.32126 11.358 4.12017 11.904 5.13993C12.45 6.15969 12.6256 7.33721 12.4007 8.47188C12.1759 9.60654 11.5646 10.6282 10.671 11.3626C9.77736 12.0971 8.65673 12.4991 7.50001 12.5Z" fill="#2CA062"/>
</svg>
