<svg width="15" height="15" viewBox="0 0 15 15" fill="none" xmlns="http://www.w3.org/2000/svg">
<path d="M13.7 7.25C12.4375 4.31875 10.0625 2.5 7.50001 2.5C4.93751 2.5 2.56251 4.31875 1.30001 7.25C1.2656 7.32885 1.24783 7.41396 1.24783 7.5C1.24783 7.58604 1.2656 7.67115 1.30001 7.75C2.56251 10.6812 4.93751 12.5 7.50001 12.5C10.0625 12.5 12.4375 10.6812 13.7 7.75C13.7344 7.67115 13.7522 7.58604 13.7522 7.5C13.7522 7.41396 13.7344 7.32885 13.7 7.25ZM7.50001 11.25C5.51876 11.25 3.64376 9.81875 2.56251 7.5C3.64376 5.18125 5.51876 3.75 7.50001 3.75C9.48126 3.75 11.3563 5.18125 12.4375 7.5C11.3563 9.81875 9.48126 11.25 7.50001 11.25ZM7.50001 5C7.00556 5 6.52221 5.14662 6.11109 5.42133C5.69996 5.69603 5.37953 6.08648 5.19031 6.54329C5.00109 7.00011 4.95158 7.50277 5.04805 7.98773C5.14451 8.47268 5.38261 8.91814 5.73224 9.26777C6.08188 9.6174 6.52733 9.8555 7.01229 9.95196C7.49724 10.0484 7.9999 9.99892 8.45672 9.8097C8.91354 9.62048 9.30398 9.30005 9.57868 8.88893C9.85339 8.4778 10 7.99445 10 7.5C10 6.83696 9.73662 6.20107 9.26778 5.73223C8.79894 5.26339 8.16305 5 7.50001 5ZM7.50001 8.75C7.25278 8.75 7.01111 8.67669 6.80555 8.53934C6.59999 8.40199 6.43977 8.20676 6.34516 7.97835C6.25055 7.74995 6.2258 7.49861 6.27403 7.25614C6.32226 7.01366 6.44131 6.79093 6.61613 6.61612C6.79094 6.4413 7.01367 6.32225 7.25615 6.27402C7.49862 6.22579 7.74996 6.25054 7.97837 6.34515C8.20677 6.43976 8.402 6.59998 8.53935 6.80554C8.6767 7.0111 8.75001 7.25277 8.75001 7.5C8.75001 7.83152 8.61831 8.14946 8.38389 8.38388C8.14947 8.6183 7.83153 8.75 7.50001 8.75Z" fill="#2CA062"/>
</svg>
