<svg width="129" height="22" viewBox="0 0 129 22" fill="none" xmlns="http://www.w3.org/2000/svg">
<path d="M12.475 17.9H5.925L4.875 21H0.4L6.75 3.45H11.7L18.05 21H13.525L12.475 17.9ZM11.375 14.6L9.2 8.175L7.05 14.6H11.375ZM25.6576 21.2C24.441 21.2 23.3576 20.9917 22.4076 20.575C21.4576 20.1583 20.7076 19.5917 20.1576 18.875C19.6076 18.1417 19.2993 17.325 19.2326 16.425H23.4576C23.5076 16.9083 23.7326 17.3 24.1326 17.6C24.5326 17.9 25.0243 18.05 25.6076 18.05C26.141 18.05 26.5493 17.95 26.8326 17.75C27.1326 17.5333 27.2826 17.2583 27.2826 16.925C27.2826 16.525 27.0743 16.2333 26.6576 16.05C26.241 15.85 25.566 15.6333 24.6326 15.4C23.6326 15.1667 22.7993 14.925 22.1326 14.675C21.466 14.4083 20.891 14 20.4076 13.45C19.9243 12.8833 19.6826 12.125 19.6826 11.175C19.6826 10.375 19.8993 9.65 20.3326 9C20.7826 8.33333 21.4326 7.80833 22.2826 7.425C23.1493 7.04167 24.1743 6.85 25.3576 6.85C27.1076 6.85 28.4826 7.28333 29.4826 8.15C30.4993 9.01667 31.0826 10.1667 31.2326 11.6H27.2826C27.216 11.1167 26.9993 10.7333 26.6326 10.45C26.2826 10.1667 25.816 10.025 25.2326 10.025C24.7326 10.025 24.3493 10.125 24.0826 10.325C23.816 10.5083 23.6826 10.7667 23.6826 11.1C23.6826 11.5 23.891 11.8 24.3076 12C24.741 12.2 25.4076 12.4 26.3076 12.6C27.341 12.8667 28.1826 13.1333 28.8326 13.4C29.4826 13.65 30.0493 14.0667 30.5326 14.65C31.0326 15.2167 31.291 15.9833 31.3076 16.95C31.3076 17.7667 31.0743 18.5 30.6076 19.15C30.1576 19.7833 29.4993 20.2833 28.6326 20.65C27.7826 21.0167 26.791 21.2 25.6576 21.2ZM42.448 21L38.198 15.15V21H33.923V2.5H38.198V12.725L42.423 7.05H47.698L41.898 14.05L47.748 21H42.448Z" fill="#2CA062"/>
<path d="M55.7271 21.175C54.4438 21.175 53.2938 20.9667 52.2771 20.55C51.2605 20.1333 50.4438 19.5167 49.8271 18.7C49.2271 17.8833 48.9105 16.9 48.8771 15.75H53.4271C53.4938 16.4 53.7188 16.9 54.1021 17.25C54.4855 17.5833 54.9855 17.75 55.6021 17.75C56.2355 17.75 56.7355 17.6083 57.1021 17.325C57.4688 17.025 57.6521 16.6167 57.6521 16.1C57.6521 15.6667 57.5021 15.3083 57.2021 15.025C56.9188 14.7417 56.5605 14.5083 56.1271 14.325C55.7105 14.1417 55.1105 13.9333 54.3271 13.7C53.1938 13.35 52.2688 13 51.5521 12.65C50.8355 12.3 50.2188 11.7833 49.7021 11.1C49.1855 10.4167 48.9271 9.525 48.9271 8.425C48.9271 6.79167 49.5188 5.51667 50.7021 4.6C51.8855 3.66667 53.4271 3.2 55.3271 3.2C57.2605 3.2 58.8188 3.66667 60.0021 4.6C61.1855 5.51667 61.8188 6.8 61.9021 8.45H57.2771C57.2438 7.88333 57.0355 7.44167 56.6521 7.125C56.2688 6.79167 55.7771 6.625 55.1771 6.625C54.6605 6.625 54.2438 6.76667 53.9271 7.05C53.6105 7.31667 53.4521 7.70833 53.4521 8.225C53.4521 8.79167 53.7188 9.23333 54.2521 9.55C54.7855 9.86667 55.6188 10.2083 56.7521 10.575C57.8855 10.9583 58.8021 11.325 59.5021 11.675C60.2188 12.025 60.8355 12.5333 61.3521 13.2C61.8688 13.8667 62.1271 14.725 62.1271 15.775C62.1271 16.775 61.8688 17.6833 61.3521 18.5C60.8521 19.3167 60.1188 19.9667 59.1521 20.45C58.1855 20.9333 57.0438 21.175 55.7271 21.175ZM77.908 13.8C77.908 14.2 77.883 14.6167 77.833 15.05H68.158C68.2247 15.9167 68.4997 16.5833 68.983 17.05C69.483 17.5 70.0913 17.725 70.808 17.725C71.8747 17.725 72.6163 17.275 73.033 16.375H77.583C77.3497 17.2917 76.9247 18.1167 76.308 18.85C75.708 19.5833 74.9497 20.1583 74.033 20.575C73.1163 20.9917 72.0913 21.2 70.958 21.2C69.5913 21.2 68.3747 20.9083 67.308 20.325C66.2413 19.7417 65.408 18.9083 64.808 17.825C64.208 16.7417 63.908 15.475 63.908 14.025C63.908 12.575 64.1997 11.3083 64.783 10.225C65.383 9.14167 66.2163 8.30833 67.283 7.725C68.3497 7.14167 69.5747 6.85 70.958 6.85C72.308 6.85 73.508 7.13333 74.558 7.7C75.608 8.26667 76.4247 9.075 77.008 10.125C77.608 11.175 77.908 12.4 77.908 13.8ZM73.533 12.675C73.533 11.9417 73.283 11.3583 72.783 10.925C72.283 10.4917 71.658 10.275 70.908 10.275C70.1913 10.275 69.583 10.4833 69.083 10.9C68.5997 11.3167 68.2997 11.9083 68.183 12.675H73.533ZM88.6633 6.9C90.2966 6.9 91.5966 7.43333 92.5633 8.5C93.5466 9.55 94.0383 11 94.0383 12.85V21H89.7883V13.425C89.7883 12.4917 89.5466 11.7667 89.0633 11.25C88.5799 10.7333 87.9299 10.475 87.1133 10.475C86.2966 10.475 85.6466 10.7333 85.1633 11.25C84.6799 11.7667 84.4383 12.4917 84.4383 13.425V21H80.1633V7.05H84.4383V8.9C84.8716 8.28333 85.4549 7.8 86.1883 7.45C86.9216 7.08333 87.7466 6.9 88.6633 6.9ZM99.159 5.6C98.409 5.6 97.7923 5.38333 97.309 4.95C96.8423 4.5 96.609 3.95 96.609 3.3C96.609 2.63333 96.8423 2.08333 97.309 1.65C97.7923 1.2 98.409 0.974999 99.159 0.974999C99.8923 0.974999 100.492 1.2 100.959 1.65C101.442 2.08333 101.684 2.63333 101.684 3.3C101.684 3.95 101.442 4.5 100.959 4.95C100.492 5.38333 99.8923 5.6 99.159 5.6ZM101.284 7.05V21H97.009V7.05H101.284ZM110.732 21.2C109.365 21.2 108.132 20.9083 107.032 20.325C105.949 19.7417 105.09 18.9083 104.457 17.825C103.84 16.7417 103.532 15.475 103.532 14.025C103.532 12.5917 103.849 11.3333 104.482 10.25C105.115 9.15 105.982 8.30833 107.082 7.725C108.182 7.14167 109.415 6.85 110.782 6.85C112.149 6.85 113.382 7.14167 114.482 7.725C115.582 8.30833 116.449 9.15 117.082 10.25C117.715 11.3333 118.032 12.5917 118.032 14.025C118.032 15.4583 117.707 16.725 117.057 17.825C116.424 18.9083 115.549 19.7417 114.432 20.325C113.332 20.9083 112.099 21.2 110.732 21.2ZM110.732 17.5C111.549 17.5 112.24 17.2 112.807 16.6C113.39 16 113.682 15.1417 113.682 14.025C113.682 12.9083 113.399 12.05 112.832 11.45C112.282 10.85 111.599 10.55 110.782 10.55C109.949 10.55 109.257 10.85 108.707 11.45C108.157 12.0333 107.882 12.8917 107.882 14.025C107.882 15.1417 108.149 16 108.682 16.6C109.232 17.2 109.915 17.5 110.732 17.5ZM124.575 9.375C125.075 8.60833 125.7 8.00833 126.45 7.575C127.2 7.125 128.033 6.9 128.95 6.9V11.425H127.775C126.708 11.425 125.908 11.6583 125.375 12.125C124.842 12.575 124.575 13.375 124.575 14.525V21H120.3V7.05H124.575V9.375Z" fill="black"/>
</svg>
